<svg width="35" height="48" viewBox="0 0 35 48" fill="none" xmlns="http://www.w3.org/2000/svg">
<rect width="35" height="36" transform="translate(0 6)" fill="white"/>
<path d="M25.2861 10C22.2518 10 19.3395 11.4125 17.4387 13.6447C15.5379 11.4125 12.6256 10 9.59128 10C4.22016 10 0 14.2202 0 19.5913C0 26.1831 5.92916 31.5542 14.9101 39.7155L17.4387 42L19.9673 39.6981C28.9482 31.5542 34.8774 26.1831 34.8774 19.5913C34.8774 14.2202 30.6572 10 25.2861 10ZM17.6131 37.1172L17.4387 37.2916L17.2643 37.1172C8.96349 29.6011 3.48774 24.6311 3.48774 19.5913C3.48774 16.1035 6.10354 13.4877 9.59128 13.4877C12.2768 13.4877 14.8926 15.2142 15.8169 17.6033H19.0779C19.9847 15.2142 22.6005 13.4877 25.2861 13.4877C28.7738 13.4877 31.3896 16.1035 31.3896 19.5913C31.3896 24.6311 25.9139 29.6011 17.6131 37.1172Z" fill="url(#paint0_linear_59233_595)"/>
<path d="M28.0901 18.6016C27.0953 19.6548 26.1749 20.4612 25.2229 21.6036C23.7042 23.4261 23.4053 25.8124 22.339 27.945C22.086 28.451 21.3787 29.6293 22.2546 28.3329C23.9515 25.8215 25.9669 23.8151 28.1913 21.7723C28.4971 21.4914 30.9431 19.635 30.9235 19.681C30.7498 20.0862 30.2809 20.2999 29.9115 20.423" stroke="#C20000" stroke-width="3" stroke-linecap="round"/>
<path d="M29.8726 21.3953C29.0817 22.1061 28.224 22.7321 27.4253 23.4324C26.9881 23.8158 26.5332 24.257 26.2907 24.7962C26.2822 24.8151 26.0683 25.388 26.254 25.1724C26.8277 24.5062 27.1901 23.6769 27.7789 23.0109C28.0643 22.6881 28.5935 22.1035 29.0804 22.08C29.4328 22.063 28.8795 23.8709 28.8201 24.0209C28.6389 24.479 28.4138 25.0225 28.1015 25.4129C27.9674 25.5805 28.026 25.3523 28.0449 25.2828C28.1474 24.9061 28.287 24.5335 28.4297 24.1709C28.663 23.578 28.9483 23.0198 29.3068 22.4931C29.5621 22.118 29.4565 22.47 29.3803 22.7308C29.0191 23.968 28.4792 25.1574 27.7676 26.2334C27.2861 26.9616 26.7303 27.6458 26.07 28.2196C25.887 28.3787 25.4289 28.7492 25.4023 28.5082C25.3484 28.018 25.6311 27.3754 25.7758 26.921C25.9189 26.4717 26.3373 25.1336 26.2879 25.6025C26.2192 26.2552 25.8465 27.0002 25.5608 27.5745C25.0823 28.5362 24.4029 29.5565 23.4727 30.1379C22.9751 30.4489 23.1272 30.004 23.2464 29.6852C23.4853 29.0462 23.7509 28.3505 24.1971 27.8235C24.2638 27.7447 24.7315 27.3014 24.6186 27.7047C24.3072 28.817 23.6467 29.8759 22.9069 30.749C22.3565 31.3985 21.6888 32.122 20.9264 32.5315C20.3141 32.8603 20.8004 31.7705 20.8868 31.5865C20.8973 31.564 21.2388 30.8871 21.2517 31.2243C21.279 31.9324 21.0321 32.7522 20.6972 33.3661C20.3465 34.0092 19.8538 34.6008 19.2741 35.0467C18.7309 35.4645 18.326 36.0298 17.7632 36.4189C17.659 36.491 17.2153 36.9228 17.1351 36.7669C16.5274 35.5853 17.5715 34.0325 18.1141 33.0351C18.4187 32.4749 18.7231 31.8698 19.1722 31.4082C19.2519 31.3263 19.7126 30.8957 19.8795 31.0036C19.9602 31.0558 20.0132 31.3468 20.0153 31.3658C20.104 32.1663 19.9235 32.9774 19.6589 33.7283C19.6062 33.8777 18.392 36.5547 18.0461 35.3494C17.7493 34.315 17.8417 33.0636 17.8764 32.0052C17.9396 30.0788 18.1345 27.9469 19.2571 26.307C19.4482 26.0278 20.5766 24.6987 21.0311 25.3705C21.2453 25.6872 21.1601 26.2601 21.1018 26.5956C20.9685 27.3629 20.6846 28.0999 20.2672 28.7572C19.7321 29.5996 18.9555 30.2856 17.9669 30.517C17.5262 30.6202 17.0762 30.5434 16.9059 30.0728C16.5175 28.9996 16.9296 27.4959 17.2539 26.4711C17.7752 24.8242 18.6983 23.1097 20.3549 22.3799C20.8837 22.1469 21.9134 21.8776 22.1798 22.6176C22.3903 23.2025 22.2969 23.9347 22.1882 24.5245C22.0265 25.4028 21.7336 26.2696 21.2998 27.0511C21.1662 27.2919 20.8535 27.806 20.6774 27.5943C20.5265 27.4129 20.4802 27.1609 20.4341 26.9294C20.2828 26.1702 20.17 24.4515 20.1455 23.738C20.0841 21.9523 20.0357 19.5358 21.5375 18.2378C21.7121 18.0869 22.3659 17.6778 22.6494 17.8446C22.8228 17.9465 22.5824 18.7889 22.5447 18.9112C22.3015 19.7016 21.3674 20.1811 20.8783 19.3526C20.1916 18.1894 20.0635 17.007 21.0792 15.9914C21.264 15.8065 21.4741 15.5942 21.6931 15.4481C21.9662 15.2661 21.6869 16.1203 21.563 16.4242C21.2281 17.2453 20.8162 18.0767 20.2191 18.7414C20.151 18.8172 19.6591 19.4231 19.6475 19.047C19.5904 17.1911 21.1833 16.1682 22.7145 15.5783C23.1256 15.4199 23.6849 15.1157 24.1518 15.1935C24.6982 15.2846 25.3797 15.6526 25.3797 16.2658C25.3797 17.0099 24.6558 17.8457 23.8519 17.6918C23.4771 17.62 23.3581 16.9965 23.286 16.7043C23.0827 15.8801 23.0251 14.9519 23.6199 14.2711C23.9655 13.8756 24.4698 13.6304 24.9864 13.5666C25.4917 13.5043 25.7544 13.8117 25.9937 14.2259C26.3285 14.8053 26.7971 16.0702 26.2341 16.6591C25.9616 16.9441 25.1301 17.2456 24.9214 16.7609C24.4102 15.574 25.25 13.7876 26.7123 14.4749C27.3206 14.7608 27.7999 15.3742 28.2033 15.8895C28.6751 16.492 29.2331 17.1932 29.3407 17.9775C29.3564 18.0916 29.3709 18.4826 29.1681 18.4953C28.986 18.5067 29.2288 17.1678 29.2502 17.0835C29.4111 16.4491 29.9253 15.3711 30.3281 16.5063C30.5554 17.1467 30.6392 17.8387 30.7271 18.5094C30.755 18.7228 30.8769 19.3755 30.6535 18.8207C30.4478 18.3099 30.2821 17.7912 30.2404 17.2391C30.2203 16.9728 30.2883 16.1816 30.215 16.4384C29.5273 18.8451 27.304 20.3643 24.9496 20.8747C24.7102 20.9267 23.2361 21.344 23.3794 20.7191C23.6435 19.5675 24.3663 18.4021 25.0402 17.4513C25.2386 17.1713 25.5414 16.7984 25.7984 16.5516C25.8224 16.5285 26.2707 16.1011 26.1351 16.478C25.9074 17.1112 25.4418 17.7399 25.0685 18.2831C24.4239 19.221 23.7196 20.1104 22.9691 20.9653C22.6308 21.3507 22.2857 21.7196 21.9364 22.0942C21.7696 22.2731 21.3733 22.7881 21.3564 22.544C21.3305 22.1677 21.5823 21.6236 21.7214 21.302C22.0505 20.5415 22.5052 19.8303 23.071 19.2224C23.4667 18.7973 23.988 18.3571 24.497 18.0681C24.8705 17.8559 25.5543 17.5365 26.0078 17.737C26.4334 17.9252 26.1596 18.5761 26.0361 18.8433C25.6212 19.7409 24.9599 20.5372 24.2253 21.1888C23.5917 21.7509 23.0166 22.134 22.2788 22.5497C21.7209 22.864 20.6121 23.5617 19.9022 23.1552C19.5185 22.9354 19.2213 22.1938 19.0986 21.8537C18.7891 20.9953 18.6022 20.0622 18.4734 19.1602C18.4274 18.8385 18.4252 18.7639 18.4168 18.4868C18.4143 18.4038 18.3449 18.2839 18.414 18.2378C18.4231 18.2317 18.4267 18.256 18.4309 18.2661C18.4956 18.4225 18.5357 18.5723 18.5752 18.7414C18.7301 19.4042 18.7939 20.0697 18.7252 20.7502C18.7167 20.8339 18.4799 22.4971 18.1933 22.445C18.0661 22.4219 17.9871 20.5078 17.9754 20.4022C17.9174 19.8761 17.8867 19.6316 17.8085 19.1234C17.7857 18.9751 17.7605 18.8271 17.7349 18.6792C17.714 18.5578 17.7739 18.3671 17.6614 18.317C17.6338 18.3048 17.6592 18.3775 17.6614 18.4076C17.6747 18.5938 17.7012 18.7684 17.7321 18.9536C17.7776 19.2269 17.8282 19.5045 17.9047 19.7713C17.9424 19.9026 18.0871 20.2509 18.1254 19.8958C18.183 19.3606 18.0886 18.7349 17.8707 18.2435C17.6995 17.8573 17.346 17.4422 16.8833 17.4541C16.3561 17.4676 15.8896 18.0281 15.7657 18.5038C15.5587 19.2994 16.9004 19.8103 17.5256 19.7034C17.7663 19.6622 17.8056 19.3039 17.7745 19.1149C17.6373 18.2804 16.5867 17.5585 15.9694 17.1004C15.6384 16.8548 15.0495 16.3211 14.5774 16.3875C14.0814 16.4572 13.8929 17.3388 13.8022 17.7116C13.7375 17.9776 13.7118 18.1573 13.689 18.4217C13.6773 18.558 13.7744 18.7352 13.6777 18.832C13.6664 18.8433 13.6616 18.8042 13.6551 18.7895C13.5439 18.5394 13.6072 18.6382 13.4287 18.3086C13.1344 17.7648 12.7765 17.2603 12.3762 16.7892C11.6575 15.9433 10.8455 15.2162 9.87229 14.6786C9.87185 14.6783 9.25395 14.2975 9.17346 14.3447C9.14875 14.3592 9.18493 14.4018 9.19892 14.4268C9.28388 14.5785 9.51028 14.8649 9.59219 14.97C10.0523 15.5603 10.5238 16.2128 11.12 16.6761C11.2541 16.7802 11.5416 17.0152 11.7368 16.942C12.3743 16.703 12.72 15.7827 12.8091 15.1737C12.8523 14.8785 12.6275 14.6986 12.3479 14.9615C11.8717 15.4093 12.2946 16.3736 12.7469 16.6676C12.7944 16.6985 12.5195 16.2138 12.4045 16.0989" stroke="#C20000" stroke-width="3" stroke-linecap="round"/>
<path d="M11.4874 14.4696C10.7881 13.9363 9.92774 13.7117 9.09383 14.0339C8.39079 14.3056 7.95982 14.6762 7.52357 15.3015C7.35993 15.536 7.26324 15.7942 7.26044 16.0823C7.25583 16.5574 7.25222 17.1137 7.37644 17.5734C7.59156 18.3693 8.4437 19.1405 9.09383 19.6133" stroke="#C20000" stroke-width="3" stroke-linecap="round"/>
<path d="M9.34889 15.5391C7.9911 17.4887 7.88148 20.1008 9.64314 21.8541C10.4698 22.6768 11.5568 22.8318 12.6592 22.8726" stroke="#C20000" stroke-width="3" stroke-linecap="round"/>
<path d="M9.95996 16.9648C10.1116 17.75 10.4061 18.4633 10.7408 19.1915C11.2735 20.3503 11.8726 21.558 12.7497 22.5018C13.0771 22.8542 13.1528 22.7957 13.2702 22.4141" stroke="#C20000" stroke-width="3" stroke-linecap="round"/>
<path d="M8.7373 16.3027C9.01978 17.2421 9.47692 18.1221 9.93127 18.9877C10.7768 20.5987 11.689 22.4587 13.1284 23.6391C13.8923 24.2656 14.5769 24.1946 15.4597 23.9928" stroke="#C20000" stroke-width="3" stroke-linecap="round"/>
<path d="M13.2695 19.002C13.2281 19.9249 13.4123 20.8111 13.626 21.7096C13.8888 22.8144 14.1402 23.6982 14.5767 24.7398C14.8049 25.2843 15.0367 25.7813 15.4481 26.2025C15.9361 26.7022 16.6677 26.5102 17.2419 26.3355" stroke="#C20000" stroke-width="3" stroke-linecap="round"/>
<path d="M15.918 19.8691C16.0454 20.6848 16.2481 21.4856 16.4838 22.2769C16.8452 23.49 17.2325 24.9618 18.204 25.8559C18.6174 26.2364 19.0363 26.3291 19.4829 26.0314" stroke="#C20000" stroke-width="3" stroke-linecap="round"/>
<path d="M16.2746 19.7656C16.1006 20.5405 16.0553 20.6302 16.003 21.5707C15.9109 23.2287 15.9036 24.9821 16.3935 26.5871C16.6351 27.3788 17.0063 27.8806 17.7515 28.1177" stroke="#C20000" stroke-width="3" stroke-linecap="round"/>
<path d="M7.61716 14.9277C7.09193 14.9452 6.15413 14.8608 5.78377 15.3153C5.63922 15.4928 5.54123 15.7013 5.40465 15.884C5.20924 16.1455 4.90316 16.306 4.78786 16.6253C4.50249 17.4156 4.81615 18.2769 4.81615 19.0868C4.81615 19.7408 5.05396 20.3416 5.12172 20.9853C5.1702 21.4459 5.39647 21.8521 5.61967 22.25C5.87103 22.698 6.1073 23.1501 6.34115 23.608C6.8631 24.6302 7.47366 25.5731 7.92273 26.6297C8.2613 27.4264 8.57839 28.1404 9.09406 28.8422C9.54057 29.45 10.0255 30.0034 10.5908 30.5059C11.1192 30.9756 11.5583 31.5687 11.9969 32.1214C12.6853 32.9887 13.2698 33.9233 14.0567 34.7102C14.4155 35.069 14.8289 35.2786 15.2563 35.542C15.6559 35.7884 15.9628 35.8744 16.4276 35.808" stroke="#C20000" stroke-width="3" stroke-linecap="round"/>
<path d="M4.51074 20.4785C4.51074 20.8793 4.51074 21.2802 4.51074 21.681C4.51074 22.0516 4.64091 22.3516 4.70313 22.708C4.7643 23.0583 4.97691 23.3228 5.08792 23.6558C5.16665 23.892 5.20518 24.1392 5.29729 24.3716C5.4701 24.8078 6.00112 25.0161 6.33281 25.311C6.66534 25.6065 6.96942 25.9211 7.31741 26.205C8.06678 26.8164 8.84682 27.4248 9.6912 27.8998C9.92269 28.03 10.2062 28.2491 10.4693 28.1176" stroke="#C20000" stroke-width="3" stroke-linecap="round"/>
<path d="M6.54785 16.5078C6.79287 17.3829 7.02721 18.2581 7.22688 19.1447C7.3321 19.612 7.41368 20.0871 7.62865 20.5198C7.90418 21.0743 8.25186 21.6095 8.57363 22.1381C9.12996 23.0521 9.65232 24.0105 10.1411 24.9618C11.2376 27.0961 12.4536 29.1589 13.5787 31.2768C14.0003 32.0704 14.5908 32.8484 15.3045 33.3931C15.6306 33.6419 15.9521 33.877 16.3174 34.0693C16.4105 34.1183 16.678 34.3508 16.7843 34.2475C16.9493 34.0872 16.9523 33.7186 16.9653 33.5176C17.0121 32.797 16.971 32.0641 16.9257 31.3447C16.8777 30.5823 16.8902 29.7247 16.3146 29.1491C16.2785 29.113 15.7621 28.6809 15.7148 28.753C15.5877 28.947 15.6331 29.389 15.6356 29.5962C15.6422 30.1601 15.7423 30.7067 16.0006 31.2117C16.0456 31.2999 16.6899 32.2925 16.7758 31.9134C16.8794 31.4557 16.7072 30.925 16.5409 30.5072C16.2315 29.7292 15.7927 28.9799 15.3017 28.3032C15.2729 28.2635 14.3454 27.2418 14.3454 27.4148C14.3454 28.1804 14.6786 28.9921 15.0923 29.6216C15.094 29.6242 15.331 30.0095 15.3781 29.9781C15.4802 29.91 15.3723 29.3517 15.364 29.2963C15.2466 28.5183 14.9387 27.7949 14.6142 27.0837C14.1462 26.0581 13.6574 25.0036 12.993 24.0875C12.6666 23.6375 11.8613 22.7986 11.8613 23.8781C11.8613 24.7389 12.5403 25.5856 13.0552 26.2293C13.0619 26.2376 13.2507 26.4824 13.2816 26.4783C13.331 26.4717 13.3351 26.3915 13.3438 26.3425C13.3877 26.0967 13.3864 25.7937 13.3608 25.5559C13.2557 24.5775 12.9434 23.6039 12.4441 22.7549C12.352 22.5982 12.0739 22.108 11.8047 22.1325C11.0645 22.1998 12.0714 25.0898 12.1725 25.3748C12.3897 25.9873 12.6433 26.5965 12.9421 27.1743C12.9989 27.2843 13.1124 27.5683 13.2476 27.6298C13.6358 27.8063 13.5599 25.6883 13.5504 25.604C13.4687 24.8827 13.292 24.1651 12.9732 23.5103C12.8667 23.2917 12.6969 22.9369 12.4271 22.8737C11.4432 22.6435 12.265 25.416 12.3847 25.7144C12.682 26.4553 13.1539 27.225 14.0342 27.1516" stroke="#C20000" stroke-width="3" stroke-linecap="round"/>
<defs>
<linearGradient id="paint0_linear_59233_595" x1="14.5726" y1="6.15999" x2="64.8222" y2="13.4119" gradientUnits="userSpaceOnUse">
<stop offset="0.729746" stop-color="#C20000"/>
<stop offset="1" stop-color="#326589"/>
</linearGradient>
</defs>
</svg>
